# xmcd CD database file
#
# Track frame offsets:
#	150
#	11117
#	23860
#	44760
#	62390
#	74367
#	90702
#	104970
#	115152
#	132340
#	140107
#	156660
#	167040
#	177490
#	189907
#	202472
#	221917
#
# Disc length: 3157 seconds
#
# Revision: 0
# Processed by: cddbd v1.4PL0 Copyright (c) Steve Scherf et al.
# Submitted via: CDex 1.51
#
DISCID=160c5311
DTITLE=Joachim Kühn - The Diminished Augmented System
DYEAR=1999
DGENRE=Jazz
TTITLE0=Harmonic Bearing
TTITLE1=Rhythmic Inconations
TTITLE2=Formal Schematics
TTITLE3=Come As It Goes
TTITLE4=Subsequent Influence
TTITLE5=The View
TTITLE6=Deep Low
TTITLE7=Range
TTITLE8=Portrait Of My Mother
TTITLE9=Thought Of JF
TTITLE10=Sex Is For Woman
TTITLE11=Pointe Dancing
TTITLE12=Researching Has No Limits
TTITLE13=Foodstamps On The Moon
TTITLE14=From Partita II - Sarabande
TTITLE15=From Partita II - Ciaccona
TTITLE16=From Partita II - Allemande
EXTD=YEAR: 1999
EXTT0=
EXTT1=
EXTT2=
EXTT3=
EXTT4=
EXTT5=
EXTT6=
EXTT7=
EXTT8=
EXTT9=
EXTT10=
EXTT11=
EXTT12=
EXTT13=
EXTT14=
EXTT15=
EXTT16=
PLAYORDER=
